<svg width="24" height="24" viewBox="0 0 24 24" fill="none" xmlns="http://www.w3.org/2000/svg">
<g clip-path="url(#clip0_902_289)">
<path d="M21.4286 2.57143H18.8571V0.857159C18.8571 0.383755 18.4734 0 18 0C17.5266 0 17.1428 0.383755 17.1428 0.857159V2.57143H6.85712V0.857159C6.85712 0.383755 6.47337 0 6.00001 0C5.52666 0 5.14285 0.383755 5.14285 0.857159V2.57143H2.57143C1.15127 2.57143 0 3.72269 0 5.14285V21.4286C0 22.8487 1.15127 24 2.57143 24H21.4286C22.8487 24 24 22.8487 24 21.4286V5.14285C24 3.72269 22.8487 2.57143 21.4286 2.57143ZM22.2857 21.4286C22.2857 21.902 21.9019 22.2857 21.4285 22.2857H2.57143C2.09802 22.2857 1.71427 21.902 1.71427 21.4286V10.2857H22.2857V21.4286ZM22.2857 8.57144H1.71427V5.14285C1.71427 4.66945 2.09802 4.28569 2.57143 4.28569H5.14285V5.99996C5.14285 6.47337 5.52661 6.85712 6.00001 6.85712C6.47342 6.85712 6.85717 6.47337 6.85717 5.99996V4.28569H17.1429V5.99996C17.1429 6.47337 17.5266 6.85712 18 6.85712C18.4734 6.85712 18.8572 6.47337 18.8572 5.99996V4.28569H21.4286C21.902 4.28569 22.2858 4.66945 22.2858 5.14285V8.57144H22.2857Z" fill="#89C249"/>
<path d="M6.85713 12H5.14286C4.66946 12 4.28571 12.3838 4.28571 12.8572C4.28571 13.3306 4.66946 13.7143 5.14286 13.7143H6.85713C7.33054 13.7143 7.71429 13.3306 7.71429 12.8572C7.71429 12.3838 7.33054 12 6.85713 12Z" fill="#89C249"/>
<path d="M12.8571 12H11.1429C10.6695 12 10.2857 12.3838 10.2857 12.8572C10.2857 13.3306 10.6695 13.7143 11.1429 13.7143H12.8571C13.3305 13.7143 13.7143 13.3306 13.7143 12.8572C13.7143 12.3838 13.3305 12 12.8571 12Z" fill="#89C249"/>
<path d="M18.8571 12H17.1429C16.6695 12 16.2857 12.3838 16.2857 12.8572C16.2857 13.3306 16.6695 13.7143 17.1429 13.7143H18.8571C19.3305 13.7143 19.7143 13.3306 19.7143 12.8572C19.7142 12.3838 19.3305 12 18.8571 12Z" fill="#89C249"/>
<path d="M6.85713 15.4286H5.14286C4.66946 15.4286 4.28571 15.8123 4.28571 16.2857C4.28571 16.7592 4.66946 17.1429 5.14286 17.1429H6.85713C7.33054 17.1429 7.71429 16.7592 7.71429 16.2857C7.71429 15.8123 7.33054 15.4286 6.85713 15.4286Z" fill="#89C249"/>
<path d="M12.8571 15.4286H11.1429C10.6695 15.4286 10.2857 15.8123 10.2857 16.2857C10.2857 16.7592 10.6695 17.1429 11.1429 17.1429H12.8571C13.3305 17.1429 13.7143 16.7592 13.7143 16.2857C13.7143 15.8123 13.3305 15.4286 12.8571 15.4286Z" fill="#89C249"/>
<path d="M18.8571 15.4286H17.1429C16.6695 15.4286 16.2857 15.8123 16.2857 16.2857C16.2857 16.7592 16.6695 17.1429 17.1429 17.1429H18.8571C19.3305 17.1429 19.7143 16.7592 19.7143 16.2857C19.7142 15.8123 19.3305 15.4286 18.8571 15.4286Z" fill="#89C249"/>
<path d="M6.85713 18.8571H5.14286C4.66946 18.8571 4.28571 19.2409 4.28571 19.7143C4.28571 20.1877 4.66946 20.5714 5.14286 20.5714H6.85713C7.33054 20.5714 7.71429 20.1876 7.71429 19.7142C7.71429 19.2408 7.33054 18.8571 6.85713 18.8571Z" fill="#89C249"/>
<path d="M12.8571 18.8571H11.1429C10.6695 18.8571 10.2857 19.2409 10.2857 19.7143C10.2857 20.1877 10.6695 20.5714 11.1429 20.5714H12.8571C13.3305 20.5714 13.7143 20.1877 13.7143 19.7143C13.7143 19.2409 13.3305 18.8571 12.8571 18.8571Z" fill="#89C249"/>
<path d="M18.8571 18.8571H17.1429C16.6695 18.8571 16.2857 19.2409 16.2857 19.7143C16.2857 20.1877 16.6695 20.5714 17.1429 20.5714H18.8571C19.3305 20.5714 19.7143 20.1877 19.7143 19.7143C19.7143 19.2409 19.3305 18.8571 18.8571 18.8571Z" fill="#89C249"/>
</g>
<defs>
<clipPath id="clip0_902_289">
<rect width="24" height="24" fill="white"/>
</clipPath>
</defs>
</svg>
